<svg id="visual" viewBox="0 0 900 600" width="900" height="600" xmlns="http://www.w3.org/2000/svg" xmlns:xlink="http://www.w3.org/1999/xlink" version="1.1"><rect x="0" y="0" width="900" height="600" fill="#001220"></rect><defs><linearGradient id="grad1_0" x1="33.3%" y1="0%" x2="100%" y2="100%"><stop offset="20%" stop-color="#fbae3c" stop-opacity="1"></stop><stop offset="80%" stop-color="#fbae3c" stop-opacity="1"></stop></linearGradient></defs><defs><linearGradient id="grad1_1" x1="33.3%" y1="0%" x2="100%" y2="100%"><stop offset="20%" stop-color="#fbae3c" stop-opacity="1"></stop><stop offset="80%" stop-color="#001220" stop-opacity="1"></stop></linearGradient></defs><defs><linearGradient id="grad2_0" x1="0%" y1="0%" x2="66.7%" y2="100%"><stop offset="20%" stop-color="#fbae3c" stop-opacity="1"></stop><stop offset="80%" stop-color="#fbae3c" stop-opacity="1"></stop></linearGradient></defs><defs><linearGradient id="grad2_1" x1="0%" y1="0%" x2="66.7%" y2="100%"><stop offset="20%" stop-color="#001220" stop-opacity="1"></stop><stop offset="80%" stop-color="#fbae3c" stop-opacity="1"></stop></linearGradient></defs><g transform="translate(900, 0)"><path d="M0 378.6C-39.1 369.3 -78.1 360 -112.2 345.2C-146.2 330.4 -175.3 310.1 -211.6 291.2C-247.9 272.4 -291.4 255.2 -306.3 222.5C-321.2 189.9 -307.5 141.9 -314.8 102.3C-322.1 62.6 -350.3 31.3 -378.6 0L0 0Z" fill="#96446e"></path><path d="M0 189.3C-19.5 184.7 -39.1 180 -56.1 172.6C-73.1 165.2 -87.7 155 -105.8 145.6C-123.9 136.2 -145.7 127.6 -153.1 111.3C-160.6 95 -153.8 71 -157.4 51.1C-161 31.3 -175.2 15.7 -189.3 0L0 0Z" fill="#fbae3c"></path></g><g transform="translate(0, 600)"><path d="M0 -378.6C41.7 -378.4 83.4 -378.1 116.5 -358.5C149.6 -339 174 -300.1 195.7 -269.4C217.5 -238.7 236.5 -216.3 267 -194C297.5 -171.6 339.5 -149.3 360.1 -117C380.6 -84.7 379.6 -42.3 378.6 0L0 0Z" fill="#96446e"></path><path d="M0 -189.3C20.9 -189.2 41.7 -189.1 58.2 -179.3C74.8 -169.5 87 -150 97.9 -134.7C108.7 -119.4 118.2 -108.2 133.5 -97C148.7 -85.8 169.8 -74.7 180 -58.5C190.3 -42.3 189.8 -21.2 189.3 0L0 0Z" fill="#fbae3c"></path></g></svg>