<svg id="visual" viewBox="0 0 900 600" width="900" height="600" xmlns="http://www.w3.org/2000/svg" xmlns:xlink="http://www.w3.org/1999/xlink" version="1.1"><rect x="0" y="0" width="900" height="600" fill="#001122"></rect><g transform="translate(396.71517330061437 326.89221516405047)"><path d="M211.9 -224C263.1 -209.6 285.2 -131.9 298.9 -52.9C312.5 26 317.8 106.3 276.7 143C235.5 179.8 148 173.1 83.7 170.9C19.3 168.8 -22 171.3 -60.5 160C-99.1 148.7 -134.8 123.6 -162 88C-189.2 52.4 -207.9 6.2 -200.7 -35.5C-193.4 -77.2 -160.3 -114.4 -122.6 -131.2C-84.8 -148 -42.4 -144.3 19 -166.9C80.3 -189.5 160.7 -238.4 211.9 -224" fill="#FF0066"></path></g></svg>