<svg id="visual" viewBox="0 0 900 600" width="900" height="600" xmlns="http://www.w3.org/2000/svg" xmlns:xlink="http://www.w3.org/1999/xlink" version="1.1"><rect x="0" y="0" width="900" height="600" fill="#bcb4eb"></rect><path d="M0 458L6.3 459C12.7 460 25.3 462 37.8 466.8C50.3 471.7 62.7 479.3 75.2 477.3C87.7 475.3 100.3 463.7 112.8 450.3C125.3 437 137.7 422 150.2 412.7C162.7 403.3 175.3 399.7 187.8 401.7C200.3 403.7 212.7 411.3 225.2 423.3C237.7 435.3 250.3 451.7 262.8 464C275.3 476.3 287.7 484.7 300.2 480.2C312.7 475.7 325.3 458.3 337.8 460C350.3 461.7 362.7 482.3 375.2 481C387.7 479.7 400.3 456.3 412.8 456.5C425.3 456.7 437.7 480.3 450 476.8C462.3 473.3 474.7 442.7 487.2 425.2C499.7 407.7 512.3 403.3 525 406.3C537.7 409.3 550.3 419.7 562.8 424.8C575.3 430 587.7 430 600.2 438.7C612.7 447.3 625.3 464.7 637.8 460.5C650.3 456.3 662.7 430.7 675.2 419.7C687.7 408.7 700.3 412.3 712.8 418.7C725.3 425 737.7 434 750.2 447.8C762.7 461.7 775.3 480.3 787.8 490.5C800.3 500.7 812.7 502.3 825.2 497.2C837.7 492 850.3 480 862.8 464.3C875.3 448.7 887.7 429.3 893.8 419.7L900 410L900 601L893.8 601C887.7 601 875.3 601 862.8 601C850.3 601 837.7 601 825.2 601C812.7 601 800.3 601 787.8 601C775.3 601 762.7 601 750.2 601C737.7 601 725.3 601 712.8 601C700.3 601 687.7 601 675.2 601C662.7 601 650.3 601 637.8 601C625.3 601 612.7 601 600.2 601C587.7 601 575.3 601 562.8 601C550.3 601 537.7 601 525 601C512.3 601 499.7 601 487.2 601C474.7 601 462.3 601 450 601C437.7 601 425.3 601 412.8 601C400.3 601 387.7 601 375.2 601C362.7 601 350.3 601 337.8 601C325.3 601 312.7 601 300.2 601C287.7 601 275.3 601 262.8 601C250.3 601 237.7 601 225.2 601C212.7 601 200.3 601 187.8 601C175.3 601 162.7 601 150.2 601C137.7 601 125.3 601 112.8 601C100.3 601 87.7 601 75.2 601C62.7 601 50.3 601 37.8 601C25.3 601 12.7 601 6.3 601L0 601Z" fill="#efb27f" stroke-linecap="round" stroke-linejoin="miter"></path></svg>