<svg id="visual" viewBox="0 0 900 600" width="900" height="600" xmlns="http://www.w3.org/2000/svg" xmlns:xlink="http://www.w3.org/1999/xlink" version="1.1"><rect x="0" y="0" width="900" height="600" fill="#bcb4eb"></rect><path d="M0 140L6.3 139C12.7 138 25.3 136 37.8 131.2C50.3 126.3 62.7 118.7 75.2 120.7C87.7 122.7 100.3 134.3 112.8 147.7C125.3 161 137.7 176 150.2 185.3C162.7 194.7 175.3 198.3 187.8 196.3C200.3 194.3 212.7 186.7 225.2 174.7C237.7 162.7 250.3 146.3 262.8 134C275.3 121.7 287.7 113.3 300.2 117.8C312.7 122.3 325.3 139.7 337.8 138C350.3 136.3 362.7 115.7 375.2 117C387.7 118.3 400.3 141.7 412.8 141.5C425.3 141.3 437.7 117.7 450 121.2C462.3 124.7 474.7 155.3 487.2 172.8C499.7 190.3 512.3 194.7 525 191.7C537.7 188.7 550.3 178.3 562.8 173.2C575.3 168 587.7 168 600.2 159.3C612.7 150.7 625.3 133.3 637.8 137.5C650.3 141.7 662.7 167.3 675.2 178.3C687.7 189.3 700.3 185.7 712.8 179.3C725.3 173 737.7 164 750.2 150.2C762.7 136.3 775.3 117.7 787.8 107.5C800.3 97.3 812.7 95.7 825.2 100.8C837.7 106 850.3 118 862.8 133.7C875.3 149.3 887.7 168.7 893.8 178.3L900 188L900 0L893.8 0C887.7 0 875.3 0 862.8 0C850.3 0 837.7 0 825.2 0C812.7 0 800.3 0 787.8 0C775.3 0 762.7 0 750.2 0C737.7 0 725.3 0 712.8 0C700.3 0 687.7 0 675.2 0C662.7 0 650.3 0 637.8 0C625.3 0 612.7 0 600.2 0C587.7 0 575.3 0 562.8 0C550.3 0 537.7 0 525 0C512.3 0 499.7 0 487.2 0C474.7 0 462.3 0 450 0C437.7 0 425.3 0 412.8 0C400.3 0 387.7 0 375.2 0C362.7 0 350.3 0 337.8 0C325.3 0 312.7 0 300.2 0C287.7 0 275.3 0 262.8 0C250.3 0 237.7 0 225.2 0C212.7 0 200.3 0 187.8 0C175.3 0 162.7 0 150.2 0C137.7 0 125.3 0 112.8 0C100.3 0 87.7 0 75.2 0C62.7 0 50.3 0 37.8 0C25.3 0 12.7 0 6.3 0L0 0Z" fill="#170021" stroke-linecap="round" stroke-linejoin="miter"></path></svg>