<svg id="visual" viewBox="0 0 900 600" width="900" height="600" xmlns="http://www.w3.org/2000/svg" xmlns:xlink="http://www.w3.org/1999/xlink" version="1.1"><rect x="0" y="0" width="900" height="600" fill="#0e0f10"></rect><path d="M0 364L21.5 373C43 382 86 400 128.8 413.2C171.7 426.3 214.3 434.7 257.2 423.3C300 412 343 381 385.8 368.3C428.7 355.7 471.3 361.3 514.2 370.5C557 379.7 600 392.3 642.8 398.5C685.7 404.7 728.3 404.3 771.2 407.2C814 410 857 416 878.5 419L900 422L900 601L878.5 601C857 601 814 601 771.2 601C728.3 601 685.7 601 642.8 601C600 601 557 601 514.2 601C471.3 601 428.7 601 385.8 601C343 601 300 601 257.2 601C214.3 601 171.7 601 128.8 601C86 601 43 601 21.5 601L0 601Z" fill="#ff6f61"></path><path d="M0 480L21.5 475.8C43 471.7 86 463.3 128.8 456C171.7 448.7 214.3 442.3 257.2 443.5C300 444.7 343 453.3 385.8 447.7C428.7 442 471.3 422 514.2 422C557 422 600 442 642.8 447.5C685.7 453 728.3 444 771.2 439C814 434 857 433 878.5 432.5L900 432L900 601L878.5 601C857 601 814 601 771.2 601C728.3 601 685.7 601 642.8 601C600 601 557 601 514.2 601C471.3 601 428.7 601 385.8 601C343 601 300 601 257.2 601C214.3 601 171.7 601 128.8 601C86 601 43 601 21.5 601L0 601Z" fill="#ff517f"></path><path d="M0 484L21.5 487C43 490 86 496 128.8 498.8C171.7 501.7 214.3 501.3 257.2 500C300 498.7 343 496.3 385.8 488.2C428.7 480 471.3 466 514.2 464C557 462 600 472 642.8 475.8C685.7 479.7 728.3 477.3 771.2 478C814 478.7 857 482.3 878.5 484.2L900 486L900 601L878.5 601C857 601 814 601 771.2 601C728.3 601 685.7 601 642.8 601C600 601 557 601 514.2 601C471.3 601 428.7 601 385.8 601C343 601 300 601 257.2 601C214.3 601 171.7 601 128.8 601C86 601 43 601 21.5 601L0 601Z" fill="#ef40a6"></path><path d="M0 518L21.5 519.2C43 520.3 86 522.7 128.8 523.2C171.7 523.7 214.3 522.3 257.2 519.8C300 517.3 343 513.7 385.8 514.2C428.7 514.7 471.3 519.3 514.2 519.8C557 520.3 600 516.7 642.8 514.5C685.7 512.3 728.3 511.7 771.2 510.2C814 508.7 857 506.3 878.5 505.2L900 504L900 601L878.5 601C857 601 814 601 771.2 601C728.3 601 685.7 601 642.8 601C600 601 557 601 514.2 601C471.3 601 428.7 601 385.8 601C343 601 300 601 257.2 601C214.3 601 171.7 601 128.8 601C86 601 43 601 21.5 601L0 601Z" fill="#c548cf"></path><path d="M0 559L21.5 559.2C43 559.3 86 559.7 128.8 560.8C171.7 562 214.3 564 257.2 559.8C300 555.7 343 545.3 385.8 538.5C428.7 531.7 471.3 528.3 514.2 528.5C557 528.7 600 532.3 642.8 533.7C685.7 535 728.3 534 771.2 537.3C814 540.7 857 548.3 878.5 552.2L900 556L900 601L878.5 601C857 601 814 601 771.2 601C728.3 601 685.7 601 642.8 601C600 601 557 601 514.2 601C471.3 601 428.7 601 385.8 601C343 601 300 601 257.2 601C214.3 601 171.7 601 128.8 601C86 601 43 601 21.5 601L0 601Z" fill="#715df2"></path></svg>