<svg id="visual" viewBox="0 0 900 600" width="900" height="600" xmlns="http://www.w3.org/2000/svg" xmlns:xlink="http://www.w3.org/1999/xlink" version="1.1"><rect x="0" y="0" width="900" height="600" fill="#5755eb"></rect><path d="M0 481L30 466.3C60 451.7 120 422.3 180 405.8C240 389.3 300 385.7 360 390.7C420 395.7 480 409.3 540 425.2C600 441 660 459 720 452.8C780 446.7 840 416.3 870 401.2L900 386L900 601L870 601C840 601 780 601 720 601C660 601 600 601 540 601C480 601 420 601 360 601C300 601 240 601 180 601C120 601 60 601 30 601L0 601Z" fill="#FF6F61" stroke-linecap="round" stroke-linejoin="miter"></path></svg>